<mxfile host="app.diagrams.net" modified="2023-06-07T02:11:11.047Z" agent="Mozilla/5.0 (Windows NT 10.0; Win64; x64) AppleWebKit/537.36 (KHTML, like Gecko) Chrome/112.0.0.0 Safari/537.36 Edg/112.0.1722.68" etag="gTQ8SBwkM7GfvEJQWFB9" version="21.3.7" type="github">
  <diagram id="prtHgNgQTEPvFCAcTncT" name="Page-1">
    <mxGraphModel dx="1377" dy="788" grid="0" gridSize="10" guides="1" tooltips="1" connect="1" arrows="1" fold="1" page="1" pageScale="1" pageWidth="827" pageHeight="1169" math="0" shadow="0">
      <root>
        <mxCell id="0" />
        <mxCell id="1" parent="0" />
        <mxCell id="2X3HRm8EYyVCT57b6TRw-4" value="" style="edgeStyle=orthogonalEdgeStyle;rounded=0;orthogonalLoop=1;jettySize=auto;html=1;" edge="1" parent="1" source="2X3HRm8EYyVCT57b6TRw-1" target="2X3HRm8EYyVCT57b6TRw-2">
          <mxGeometry relative="1" as="geometry">
            <Array as="points">
              <mxPoint x="371" y="212" />
              <mxPoint x="145" y="212" />
            </Array>
          </mxGeometry>
        </mxCell>
        <mxCell id="2X3HRm8EYyVCT57b6TRw-10" style="edgeStyle=orthogonalEdgeStyle;orthogonalLoop=1;jettySize=auto;html=1;entryX=0.575;entryY=0.017;entryDx=0;entryDy=0;entryPerimeter=0;curved=1;" edge="1" parent="1" target="2X3HRm8EYyVCT57b6TRw-5">
          <mxGeometry relative="1" as="geometry">
            <mxPoint x="331" y="217" as="sourcePoint" />
            <Array as="points">
              <mxPoint x="331" y="213" />
              <mxPoint x="333" y="213" />
              <mxPoint x="333" y="215" />
              <mxPoint x="331" y="215" />
            </Array>
          </mxGeometry>
        </mxCell>
        <mxCell id="2X3HRm8EYyVCT57b6TRw-11" style="edgeStyle=orthogonalEdgeStyle;rounded=0;orthogonalLoop=1;jettySize=auto;html=1;entryX=0.5;entryY=0;entryDx=0;entryDy=0;" edge="1" parent="1" target="2X3HRm8EYyVCT57b6TRw-6">
          <mxGeometry relative="1" as="geometry">
            <mxPoint x="483" y="215" as="sourcePoint" />
            <Array as="points">
              <mxPoint x="481" y="215" />
            </Array>
          </mxGeometry>
        </mxCell>
        <mxCell id="2X3HRm8EYyVCT57b6TRw-12" style="edgeStyle=orthogonalEdgeStyle;rounded=0;orthogonalLoop=1;jettySize=auto;html=1;strokeWidth=3;strokeColor=#BDBDBD;" edge="1" parent="1" source="2X3HRm8EYyVCT57b6TRw-1" target="2X3HRm8EYyVCT57b6TRw-7">
          <mxGeometry relative="1" as="geometry">
            <Array as="points">
              <mxPoint x="371" y="212" />
              <mxPoint x="634" y="212" />
            </Array>
          </mxGeometry>
        </mxCell>
        <mxCell id="2X3HRm8EYyVCT57b6TRw-1" value="合同管理" style="rounded=1;whiteSpace=wrap;html=1;strokeWidth=3;" vertex="1" parent="1">
          <mxGeometry x="311" y="95" width="120" height="53" as="geometry" />
        </mxCell>
        <mxCell id="2X3HRm8EYyVCT57b6TRw-2" value="" style="whiteSpace=wrap;html=1;rounded=1;" vertex="1" parent="1">
          <mxGeometry x="85" y="344" width="120" height="60" as="geometry" />
        </mxCell>
        <mxCell id="2X3HRm8EYyVCT57b6TRw-5" value="" style="rounded=1;whiteSpace=wrap;html=1;" vertex="1" parent="1">
          <mxGeometry x="262" y="342" width="120" height="60" as="geometry" />
        </mxCell>
        <mxCell id="2X3HRm8EYyVCT57b6TRw-6" value="" style="rounded=1;whiteSpace=wrap;html=1;" vertex="1" parent="1">
          <mxGeometry x="421" y="344" width="120" height="60" as="geometry" />
        </mxCell>
        <mxCell id="2X3HRm8EYyVCT57b6TRw-7" value="" style="rounded=1;whiteSpace=wrap;html=1;" vertex="1" parent="1">
          <mxGeometry x="574" y="346" width="120" height="60" as="geometry" />
        </mxCell>
      </root>
    </mxGraphModel>
  </diagram>
</mxfile>
